<svg fill="none" height="24" viewBox="0 0 24 24" width="24" xmlns="http://www.w3.org/2000/svg"><path d="m4 1.25c-1.51878 0-2.75 1.23122-2.75 2.75v16c0 1.5188 1.23122 2.75 2.75 2.75h16c1.5188 0 2.75-1.2312 2.75-2.75v-16c0-1.51878-1.2312-2.75-2.75-2.75z" fill="#eceff1"/><path clip-rule="evenodd" d="m11.75 1.25v21.5h-7.75c-1.51878 0-2.75-1.2312-2.75-2.75v-16c0-1.51878 1.23122-2.75 2.75-2.75z" fill="#cfd8dc" fill-rule="evenodd"/><path clip-rule="evenodd" d="m15 22.75-.9-1.2c-.0058-.0078-.0118-.0154-.0179-.023l-5.03291-6.1943c-1.06144-1.3064-3.03689-1.3612-4.16915-.1157l-3.435 3.7785c-.0106.0117-.02084.0237-.03069.036l-.16435.2054v.7631c0 1.5188 1.23122 2.75 2.75 2.75z" fill="#5e94ff" fill-rule="evenodd"/><path clip-rule="evenodd" d="m22.2047 21.644-.6744-.6743-3.177-3.177c-1.0237-1.0237-2.6658-1.0784-3.7554-.125l-2.5918 2.2679c-.1627.1424-.2561.3481-.2561.5644v2.25h8.25c.9024 0 1.7033-.4346 2.2047-1.106z" fill="#5e94ff" fill-rule="evenodd"/><path d="m15.5 1.25c-4.0041 0-7.25 3.24594-7.25 7.25 0 4.0041 3.2459 7.25 7.25 7.25s7.25-3.2459 7.25-7.25c0-4.00406-3.2459-7.25-7.25-7.25z" fill="#ee4d4d"/><g clip-rule="evenodd" fill-rule="evenodd"><path d="m11.75 2.29391v12.41219c-2.09791-1.2704-3.5-3.5745-3.5-6.2061 0-2.63159 1.40209-4.93571 3.5-6.20609z" fill="#d64545"/><path d="m12.8486 11.1516c-.2929-.2929-.2929-.7677 0-1.0606l4.2426-4.24266c.2929-.2929.7678-.2929 1.0607 0 .2929.29289.2929.76776 0 1.06066l-4.2427 4.2426c-.2929.2929-.7677.2929-1.0606 0z" fill="#eceff1"/><path d="m18.1514 11.1516c-.2929.2929-.7677.2929-1.0606 0l-4.2427-4.24259c-.2929-.2929-.2929-.76777 0-1.06066.2929-.2929.7678-.2929 1.0607 0l4.2426 4.24265c.2929.2929.2929.7678 0 1.0606z" fill="#eceff1"/><path d="m1.25 19.2369v.7631c0 1.5188 1.23122 2.75 2.75 2.75h7.75v-4.0932l-2.70081-3.3241c-1.06144-1.3064-3.03689-1.3612-4.16915-.1157l-3.435 3.7785c-.0106.0117-.02084.0237-.03069.036z" fill="#5485e5"/></g></svg>