<svg clip-rule="evenodd" fill-rule="evenodd" height="512" image-rendering="optimizeQuality" shape-rendering="geometricPrecision" text-rendering="geometricPrecision" viewBox="0 0 512 512" width="512" xmlns="http://www.w3.org/2000/svg" xmlns:xlink="http://www.w3.org/1999/xlink" xmlns:xodm="http://www.corel.com/coreldraw/odm/2003"><linearGradient id="id0" gradientUnits="userSpaceOnUse" x1="511.76" x2=".21" y1="256.01" y2="256.01"><stop offset="0" stop-color="#f071ab"/><stop offset="1" stop-color="#22abe2"/></linearGradient><g id="Layer_x0020_1"><path d="m471.69 477.03h-123.27l-16.06-26.37 68.23-106.72 93.02 126.55c-6.3 4.13-13.83 6.54-21.92 6.54zm-425.77-131.12h-5.61c-22.1 0-40.09-17.98-40.09-40.09v-230.76c0-22.11 17.99-40.09 40.09-40.09h316c22.1 0 40.08 17.98 40.08 40.09v13.47h-298.39c-28.72 0-52.08 23.36-52.08 52.09zm57.69 65.56h-5.61c-22.1 0-40.08-17.98-40.08-40.09v-230.76c0-22.11 17.98-40.09 40.08-40.09h316c22.1 0 40.08 17.98 40.08 40.09v13.47h-298.39c-28.72 0-52.08 23.36-52.08 52.09zm215.96-70.14c-31.14 0-56.48-25.33-56.48-56.47s25.34-56.48 56.48-56.48 56.47 25.34 56.47 56.48-25.33 56.47-56.47 56.47zm0-100.96c-24.53 0-44.49 19.96-44.49 44.49s19.96 44.48 44.49 44.48 44.48-19.95 44.48-44.48-19.95-44.49-44.48-44.49zm5.84 198.89-93.15-152.92c-1.07-1.75-2.96-2.83-5.01-2.87-2.05-.06-3.98.99-5.11 2.7l-105.44 160.06c-.71-2.98-1.09-6.09-1.09-9.29v-230.76c0-22.11 17.98-40.09 40.08-40.09h316c22.11 0 40.09 17.98 40.09 40.09v230.76c0 9.69-3.45 18.58-9.19 25.52l-97.53-132.65c-1.17-1.59-3.06-2.5-5.03-2.44-1.97.07-3.78 1.1-4.85 2.76zm8.97 37.77h-178.69c-13.82 0-26.04-7.04-33.25-17.72l104.52-158.65z" fill="url(#id0)"/></g></svg>