<svg id="Layer_1" height="512" viewBox="0 0 512 512" width="512" xmlns="http://www.w3.org/2000/svg" xmlns:xlink="http://www.w3.org/1999/xlink" data-name="Layer 1"><linearGradient id="GradientFill_1" gradientUnits="userSpaceOnUse" x1="255.977" x2="255.978" y1="458.026" y2="53.971"><stop offset="0" stop-color="#6c54a3"/><stop offset="1" stop-color="#00b1d2"/></linearGradient><path d="m458.679 393.317a8.534 8.534 0 0 0 -8.544-8.537h-182.768a8.53 8.53 0 1 0 0 17.06h182.768a8.531 8.531 0 0 0 8.544-8.523zm-199.842-60.317a8.517 8.517 0 0 0 8.53 8.515h182.768a8.53 8.53 0 1 0 0-17.059h-182.768a8.532 8.532 0 0 0 -8.53 8.544zm0-60.323a8.535 8.535 0 0 0 8.53 8.537h182.768a8.53 8.53 0 1 0 0-17.059h-182.768a8.518 8.518 0 0 0 -8.53 8.522zm0-60.322a8.532 8.532 0 0 0 8.53 8.544h182.768a8.534 8.534 0 1 0 0-17.067h-182.768a8.523 8.523 0 0 0 -8.53 8.523zm0-93.67a8.52 8.52 0 0 0 8.53 8.53h182.768a8.53 8.53 0 1 0 0-17.06h-182.768a8.52 8.52 0 0 0 -8.53 8.53zm-258.861 110.081v54.465a4.135 4.135 0 0 0 3.462 4.15l34.362 6.166a8.513 8.513 0 0 1 6.716 6.122 162.5 162.5 0 0 0 15.259 36.791 8.544 8.544 0 0 1 -.422 9.079l-19.931 28.69a4.091 4.091 0 0 0 .471 5.372l38.513 38.5a4.092 4.092 0 0 0 5.372.479l28.689-19.938a8.565 8.565 0 0 1 9.073-.422 163.041 163.041 0 0 0 36.791 15.266 8.52 8.52 0 0 1 6.115 6.694l6.186 34.376a4.106 4.106 0 0 0 4.144 3.465h13.68v-85.164a117.638 117.638 0 0 1 0-233.71v-85.176h-13.68a4.112 4.112 0 0 0 -4.144 3.479l-6.186 34.355a8.556 8.556 0 0 1 -6.115 6.715 163.007 163.007 0 0 0 -36.791 15.252 8.533 8.533 0 0 1 -9.073-.414l-28.689-19.939a4.1 4.1 0 0 0 -5.372.472l-38.513 38.519a4.091 4.091 0 0 0 -.485 5.358l19.945 28.7a8.522 8.522 0 0 1 .422 9.066 162.7 162.7 0 0 0 -15.259 36.791 8.534 8.534 0 0 1 -6.716 6.129l-34.362 6.176a4.105 4.105 0 0 0 -3.462 4.136zm512 229.26h-306.446v-404.055h306.449v404.055zm-323.523-102.4a100.55 100.55 0 0 1 0-199.27z" fill="url(#GradientFill_1)" fill-rule="evenodd"/></svg>